<svg width="280" height="41" viewBox="0 0 280 41" fill="none" xmlns="http://www.w3.org/2000/svg">
    <path d="M20.81 0H7.425v1.462H20.81V0zM20.81 2.791H7.425v1.463H20.81V2.79zM20.81 5.58H7.425v1.463H20.81V5.58zM28.235 8.373H0v1.462h28.235V8.373zM28.235 11.162H0v1.461h28.235v-1.46zM28.235 13.953H0v1.46h28.235v-1.46zM28.235 16.744H0v1.462h28.235v-1.462zM20.81 19.533H7.425v1.462H20.81v-1.462zM20.81 22.324H7.425v1.463H20.81v-1.463zM20.81 25.114H7.425v1.46H20.81v-1.46z" fill="#999" />
    <path d="M90.212 8.372l-7.093 11.18h-8.102l11.43 20.972 5.952-10.938 5.951 10.938 17.231-32.152H90.212z" fill="#F7323F" />
    <path d="M29.631 8.373v1.462h57.874l.931-1.462H29.631zM29.631 11.162v1.461h56.101l.93-1.46h-57.03zM29.631 13.953v1.46h54.325l.93-1.46H29.63zM29.631 16.744v1.461h52.55l.93-1.46h-53.48zM131.69 5.588h-4.879v1.46h4.879v-1.46z" fill="#999" />
    <path d="M250.02 40.555V8.373h20.024c5.114 0 9.259 3.958 9.259 8.844 0 4.883-4.145 8.84-9.259 8.84h-4.439v14.5l-15.585-.002zM206.776 19.564h-15.581V40.41h15.581V19.564z" fill="#F7323F" />
    <path d="M215.365 8.373H182.6v1.462h32.765V8.373zM215.365 11.162H182.6v1.461h32.765v-1.46zM215.365 13.953H182.6v1.46h32.765v-1.46zM215.365 16.744H182.6v1.462h32.765v-1.462z" fill="#999" />
    <path d="M242.285 29.347h-24.233V8.373h29.28v9.823h-13.906v4.125h8.842l.017 7.026z" fill="#F7323F" />
    <path d="M247.335 30.693h-29.283v1.463h29.283v-1.463zM247.335 33.484h-29.283v1.462h29.283v-1.462zM247.335 36.274h-29.283v1.462h29.283v-1.462zM247.335 39.064h-29.283v1.46h29.283v-1.46z" fill="#999" />
    <path d="M169.772 18.204h10.139V8.376h-18.398c-1.585 0-3.088.304-4.461.857l-.099.041 19.99 19.046c-.522-3.159-4.552-8.459-7.171-10.116zM157.285 30.7h-10.139v9.824h18.398c1.585 0 3.09-.305 4.463-.855 0 0 .075-.03.214-.092l-20.135-19.183c.388 3.134 4.529 8.614 7.199 10.306z" fill="#F7323F" />
    <path d="M154.418 10.806l22.318 21.262c.137-.566.229-1.169.268-1.809L155.683 9.943c-.38.229-.812.513-1.265.863zM152.36 12.79l23.196 22.102c.263-.431.502-.896.708-1.394l-22.886-21.804c-.345.329-.691.695-1.018 1.096zM150.84 15.291l22.923 21.838c.341-.334.682-.701 1.007-1.108L151.562 13.91c-.265.428-.509.888-.722 1.382zM150.064 18.496l21.414 20.402c.38-.232.807-.523 1.257-.873l-22.377-21.318c-.142.56-.244 1.157-.294 1.79zM129.248 8.372c-4.625 0-8.813 1.787-11.848 4.674l11.856 11.296 8.463-5.235 1.617-.13-.782 1.355-8.192 5.067-1.313.814-1.109-1.056-11.577-11.028c-2.419 2.769-3.877 6.33-3.877 10.215 0 8.819 7.505 15.97 16.76 15.97 9.268 0 16.777-7.15 16.777-15.97.002-8.823-7.507-15.972-16.775-15.972z" fill="#999" />
</svg>